# xmcd
#
# Track frame offsets: 
#        150
#        20497
#        34080
#        52282
#        69325
#        80975
#        98132
#        112342
#        123007
#        137065
#        157607
#        177087
#        191797
#        204947
#        219185
#        231497
#        245577
#
# Disc length: 3503 seconds
#
# Revision: 0
# Processed by: cddbd v1.4PL0 Copyright (c) Steve Scherf et al.
# Submitted via: ExactAudioCopy v0.90b4
#
DISCID=f00dad11
DTITLE=Sunnyland Slim - Sunnyland Train
DYEAR=1995
DGENRE=Blues
TTITLE0=Sunnyland Train
TTITLE1=Be My Baby
TTITLE2=Sometime I Worry
TTITLE3=Decoration Day
TTITLE4=All My Life
TTITLE5=Tin Pan Alley
TTITLE6=Unlucky One
TTITLE7=Pinetop's Boogie Woogie
TTITLE8=Worried About My Baby
TTITLE9=Highway 61
TTITLE10=Backwater Blues
TTITLE11=Sad and Lonesome
TTITLE12=She Used to Love Me [*]
TTITLE13=Sitting Here Thinking [*]
TTITLE14=I Feel So Good [*]
TTITLE15=Patience Like Job [*]
TTITLE16=Goin' Down Slow [*]
EXTD=
EXTT0=
EXTT1=
EXTT2=
EXTT3=
EXTT4=
EXTT5=
EXTT6=
EXTT7=
EXTT8=
EXTT9=
EXTT10=
EXTT11=
EXTT12=
EXTT13=
EXTT14=
EXTT15=
EXTT16=
PLAYORDER=
